<?xml version="1.0" encoding="iso-8859-1"?>
<!-- Generator: Adobe Illustrator 21.0.0, SVG Export Plug-In . SVG Version: 6.00 Build 0)  -->
<svg version="1.1" id="Capa_1" xmlns="http://www.w3.org/2000/svg" xmlns:xlink="http://www.w3.org/1999/xlink" x="0px" y="0px"
	 viewBox="0 0 512.001 512.001" style="enable-background:new 0 0 512.001 512.001;" xml:space="preserve">
<g>
	<g>
		<path d="M482.707,96.394c-4.818-8.205-13.73-13.728-23.912-13.728H256h-35.485h-56.911H53.205
			c-10.183,0-19.094,5.524-23.912,13.728C13.075,96.786,0,110.092,0,126.402v228.919c0,24.565,19.985,44.551,44.551,44.551h111.553
			v21.963c0,2.787,1.545,5.344,4.013,6.64c2.467,1.295,5.45,1.116,7.745-0.466l24.198-16.688l24.198,16.688
			c1.275,0.879,2.764,1.326,4.258,1.326c1.193,0,2.391-0.285,3.486-0.86c2.468-1.296,4.013-3.853,4.013-6.64v-21.963h0.516
			c3.951,11.486,14.776,19.504,27.47,19.504s23.519-8.018,27.47-19.504H467.45c24.565,0,44.551-19.985,44.551-44.55v-228.92
			C512,110.092,498.925,96.786,482.707,96.394z M156.103,384.872H44.551v0.001C28.256,384.873,15,371.616,15,355.322v-228.92
			c0-6.704,4.415-12.394,10.489-14.323v232.612c0,15.283,12.433,27.716,27.716,27.716h102.898V384.872z M156.104,193.077H71.949
			c-4.142,0-7.5,3.358-7.5,7.5c0,4.142,3.358,7.5,7.5,7.5h84.155v38.919H71.949c-4.142,0-7.5,3.358-7.5,7.5
			c0,4.142,3.358,7.5,7.5,7.5h84.155v38.919H71.949c-4.142,0-7.5,3.358-7.5,7.5c0,4.142,3.358,7.5,7.5,7.5h84.155v41.492H53.205
			c-7.012,0-12.716-5.705-12.716-12.716V110.382c0-7.011,5.704-12.716,12.716-12.716h102.898v41.492H71.949
			c-4.142,0-7.5,3.358-7.5,7.5c0,4.142,3.358,7.5,7.5,7.5h84.155V193.077z M213.014,392.363c0,0.003,0,0.006,0,0.01
			c0,0.004,0,0.006,0,0.01v15.17l-16.697-11.516c-1.282-0.884-2.77-1.326-4.258-1.326s-2.976,0.442-4.258,1.326l-16.698,11.516
			v-15.161c0-0.007,0.001-0.013,0.001-0.019c0-0.006-0.001-0.013-0.001-0.019v-27.436c0-0.003,0-0.006,0-0.01
			c0-0.004,0-0.006,0-0.01V97.666h41.911V392.363z M228.015,97.666H248.5v62.227c0,4.142,3.358,7.5,7.5,7.5
			c4.142,0,7.5-3.358,7.5-7.5V97.666h195.295c7.012,0,12.716,5.705,12.716,12.716v234.309c0,7.012-5.704,12.716-12.716,12.716H263.5
			V187.342c0-4.142-3.358-7.5-7.5-7.5c-4.142,0-7.5,3.358-7.5,7.5v170.065h-20.485V97.666z M497,355.322
			c0,16.294-13.256,29.55-29.551,29.55H277.467c-3.868,0-7.101,2.941-7.466,6.791c-0.688,7.248-6.707,12.713-14,12.713
			c-7.293,0-13.312-5.465-14-12.713c-0.365-3.85-3.599-6.791-7.466-6.791h-6.519v-12.465H256h202.795
			c15.283,0,27.716-12.434,27.716-27.716V112.079c6.074,1.929,10.489,7.619,10.489,14.323V355.322z"/>
	</g>
</g>
<g>
	<g>
		<path d="M440.051,139.158H294.959c-4.142,0-7.5,3.358-7.5,7.5c0,4.142,3.358,7.5,7.5,7.5h145.092c4.142,0,7.5-3.358,7.5-7.5
			C447.551,142.516,444.193,139.158,440.051,139.158z"/>
	</g>
</g>
<g>
	<g>
		<path d="M440.051,193.077H294.959c-4.142,0-7.5,3.358-7.5,7.5c0,4.142,3.358,7.5,7.5,7.5h145.092c4.142,0,7.5-3.358,7.5-7.5
			C447.551,196.435,444.193,193.077,440.051,193.077z"/>
	</g>
</g>
<g>
	<g>
		<path d="M440.051,246.997H294.959c-4.142,0-7.5,3.358-7.5,7.5c0,4.142,3.358,7.5,7.5,7.5h145.092c4.142,0,7.5-3.358,7.5-7.5
			C447.551,250.355,444.193,246.997,440.051,246.997z"/>
	</g>
</g>
<g>
	<g>
		<path d="M440.051,300.916H294.959c-4.142,0-7.5,3.358-7.5,7.5c0,4.142,3.358,7.5,7.5,7.5h145.092c4.142,0,7.5-3.358,7.5-7.5
			C447.551,304.274,444.193,300.916,440.051,300.916z"/>
	</g>
</g>
<g>
</g>
<g>
</g>
<g>
</g>
<g>
</g>
<g>
</g>
<g>
</g>
<g>
</g>
<g>
</g>
<g>
</g>
<g>
</g>
<g>
</g>
<g>
</g>
<g>
</g>
<g>
</g>
<g>
</g>
</svg>
