<?xml version="1.0" standalone="no"?>
<!DOCTYPE svg PUBLIC "-//W3C//DTD SVG 20010904//EN"
 "http://www.w3.org/TR/2001/REC-SVG-20010904/DTD/svg10.dtd">
<svg version="1.0" xmlns="http://www.w3.org/2000/svg"
 width="225.000000pt" height="225.000000pt" viewBox="0 0 225.000000 225.000000"
 preserveAspectRatio="xMidYMid meet">
<metadata>
Created by potrace 1.16, written by Peter Selinger 2001-2019
</metadata>
<g transform="translate(0.000000,225.000000) scale(0.100000,-0.100000)"
fill="#000000" stroke="none">
<path d="M948 2235 c-330 -54 -616 -250 -791 -542 -150 -249 -193 -583 -112
-870 31 -110 119 -287 184 -374 168 -221 422 -377 701 -430 84 -15 306 -15
390 0 280 54 533 209 701 430 65 87 153 264 184 374 81 287 38 621 -112 870
-124 207 -321 380 -532 468 -184 77 -422 106 -613 74z m424 -74 c431 -112 738
-450 804 -884 70 -457 -181 -918 -609 -1117 -400 -186 -877 -100 -1192 215
-467 467 -401 1235 140 1620 122 88 304 162 450 185 96 15 318 4 407 -19z"/>
<path d="M952 2104 c-236 -40 -479 -189 -619 -381 -118 -161 -167 -291 -198
-520 l-5 -43 199 0 199 0 7 28 c10 48 8 118 -5 141 -6 13 -30 31 -53 41 l-42
19 43 41 c24 22 65 51 92 65 l50 25 91 -71 c50 -39 92 -69 93 -67 1 2 40 138
86 303 45 165 87 306 93 313 12 16 52 16 65 -1 6 -7 95 -312 198 -678 103
-365 194 -672 202 -681 19 -23 54 -23 75 0 8 9 43 116 77 237 34 121 66 228
71 237 22 41 59 48 258 48 l191 0 -6 48 c-17 142 -47 248 -105 366 -191 387
-622 603 -1057 530z"/>
<path d="M993 1719 c-30 -11 -35 -23 -82 -199 -23 -85 -44 -162 -47 -171 -3
-10 15 -30 52 -57 69 -51 116 -56 162 -17 l30 25 11 -32 c16 -52 24 -125 17
-162 -6 -33 -9 -34 -207 -116 -228 -95 -244 -107 -237 -182 l5 -47 -31 6 c-37
7 -122 46 -154 71 l-22 17 15 105 c8 58 15 111 15 118 0 9 -45 12 -194 12
l-195 0 6 -57 c9 -95 51 -243 92 -330 140 -292 391 -486 716 -554 33 -7 114
-13 180 -13 66 0 147 6 180 13 325 68 576 262 716 554 41 87 83 235 92 330 l6
57 -167 0 c-148 0 -171 -2 -199 -20 -20 -12 -35 -31 -41 -52 -5 -18 -49 -178
-97 -356 -92 -335 -99 -352 -144 -337 -11 3 -22 13 -26 23 -3 9 -87 311 -186
671 -98 360 -185 664 -193 676 -17 26 -44 35 -73 24z"/>
<path d="M824 1203 c-19 -77 -61 -113 -134 -113 -48 0 -51 -13 -7 -41 92 -58
211 33 177 136 -15 46 -28 52 -36 18z"/>
</g>
</svg>
