<svg id="Capa_1" enable-background="new 0 0 512 512" height="512" viewBox="0 0 512 512" width="512" xmlns="http://www.w3.org/2000/svg"><g><path d="m260.008 335.645c4.142 0 7.5-3.358 7.5-7.5s-3.358-7.5-7.5-7.5h-16.033c-4.142 0-7.5 3.358-7.5 7.5s3.358 7.5 7.5 7.5z"/><path d="m251.992 399.774c13.632 0 26.553-1.804 36.382-5.081 15.882-5.294 19.215-12.957 19.215-18.452v-25.049l19.629-8.922c5.61-2.55 9.095-7.963 9.095-14.126s-3.485-11.575-9.095-14.125l-58.854-26.752c-10.404-4.729-22.339-4.729-32.744 0l-58.854 26.752c-5.61 2.55-9.095 7.962-9.095 14.125s3.485 11.576 9.095 14.126l19.629 8.922v41.081c0 4.142 3.358 7.5 7.5 7.5 3.865 0 7.044-2.924 7.453-6.68 1.31.552 2.726 1.087 4.262 1.599 9.829 3.278 22.75 5.082 36.382 5.082zm-69.322-71.629c0-.332.161-.405.302-.47l58.854-26.752c3.23-1.468 6.697-2.202 10.165-2.202s6.935.734 10.165 2.202l58.854 26.752c.142.064.302.138.302.47 0 .333-.161.406-.302.47l-58.854 26.752c-6.459 2.936-13.869 2.937-20.33 0l-58.854-26.752c-.141-.064-.302-.137-.302-.47zm28.725 47.605v-17.739l24.225 11.011c5.202 2.365 10.787 3.547 16.372 3.547 5.584 0 11.169-1.182 16.372-3.547l24.225-11.011v17.742c-2.063 2.832-15.829 9.021-40.597 9.021-24.778 0-38.543-6.194-40.597-9.024z"/><path d="m196.395 416.323c0 4.142 3.358 7.5 7.5 7.5h.08c4.142 0 7.46-3.358 7.46-7.5s-3.398-7.5-7.54-7.5-7.5 3.358-7.5 7.5z"/><path d="m144.827 427.354c1.479 1.901 3.69 2.896 5.925 2.896 1.609 0 3.231-.516 4.599-1.581 3.27-2.543 3.858-7.255 1.315-10.524-37.269-47.916-32.997-116.424 9.937-159.357 42.933-42.933 111.441-47.205 159.357-9.937 3.269 2.544 7.981 1.954 10.524-1.315s1.954-7.981-1.315-10.524c-53.874-41.903-130.902-37.103-179.172 11.17-48.272 48.271-53.074 125.298-11.17 179.172z"/><path d="m337.381 429.566c-42.934 42.933-111.442 47.204-159.357 9.937-3.269-2.544-7.98-1.954-10.524 1.315-2.543 3.27-1.954 7.981 1.315 10.524 24.556 19.1 53.918 28.496 83.18 28.496 34.935 0 69.724-13.397 95.993-39.666 48.271-48.271 53.073-125.299 11.17-179.172-2.543-3.271-7.256-3.859-10.524-1.315-3.27 2.543-3.858 7.255-1.315 10.524 37.267 47.916 32.995 116.424-9.938 159.357z"/><path d="m427.218 4.531c-1.185-2.75-3.893-4.531-6.887-4.531h-56.113c-2.063 0-4.036.85-5.453 2.35l-83.069 87.955c-2.844 3.012-2.708 7.758.303 10.603 3.012 2.843 7.758 2.708 10.603-.303l80.849-85.605h35.48l-118.874 125.867-130.822-138.517c-1.417-1.5-3.389-2.35-5.453-2.35h-56.113c-2.995 0-5.702 1.781-6.887 4.531-1.186 2.75-.622 5.941 1.435 8.119l125.666 133.058c-9.026 3.294-15.488 11.964-15.488 22.115 0 6.146 2.371 11.746 6.242 15.942-68.526 21.126-118.468 85.045-118.468 160.412 0 92.538 75.285 167.823 167.823 167.823s167.823-75.285 167.823-167.823c0-75.368-49.942-139.286-118.468-160.412 3.872-4.196 6.242-9.796 6.242-15.942 0-7.991-4.007-15.061-10.115-19.316l128.309-135.858c2.056-2.176 2.62-5.368 1.435-8.118zm-282.669 10.469 122.108 129.291h-35.48l-122.108-129.291zm260.265 329.177c0 84.267-68.556 152.823-152.823 152.823s-152.822-68.556-152.822-152.823 68.556-152.822 152.822-152.822 152.823 68.556 152.823 152.822zm-184.887-167.822c-4.705 0-8.532-3.828-8.532-8.532s3.828-8.532 8.532-8.532h64.129c4.705 0 8.532 3.828 8.532 8.532s-3.828 8.532-8.532 8.532z"/></g></svg>